<mxfile host="www.draw.io" modified="2019-10-31T19:01:35.208Z" agent="Mozilla/5.0 (Windows NT 10.0; Win64; x64; rv:71.0) Gecko/20100101 Firefox/71.0" etag="nce5SccXA_kvOe9AV7_7" version="12.1.9" type="github" pages="1">
  <diagram name="Page-1" id="0783ab3e-0a74-02c8-0abd-f7b4e66b4bec">
    <mxGraphModel dx="1024" dy="561" grid="1" gridSize="10" guides="1" tooltips="1" connect="1" arrows="1" fold="1" page="1" pageScale="1" pageWidth="850" pageHeight="1100" background="#ffffff" math="0" shadow="0">
      <root>
        <mxCell id="0"/>
        <mxCell id="1" parent="0"/>
        <mxCell id="1c1d494c118603dd-1" value="Pool" style="swimlane;html=1;childLayout=stackLayout;startSize=20;rounded=0;shadow=0;comic=0;labelBackgroundColor=none;strokeColor=#000000;strokeWidth=1;fillColor=#ffffff;fontFamily=Verdana;fontSize=12;fontColor=#000000;align=center;" parent="1" vertex="1">
          <mxGeometry x="40" y="20" width="1240" height="1960" as="geometry"/>
        </mxCell>
        <mxCell id="n3SkGMCZbg7LG-9alkwq-2" value="" style="edgeStyle=orthogonalEdgeStyle;rounded=0;orthogonalLoop=1;jettySize=auto;html=1;exitX=0.417;exitY=1;exitDx=0;exitDy=0;exitPerimeter=0;" edge="1" parent="1c1d494c118603dd-1" source="n3SkGMCZbg7LG-9alkwq-7" target="n3SkGMCZbg7LG-9alkwq-1">
          <mxGeometry relative="1" as="geometry">
            <mxPoint x="80" y="200" as="sourcePoint"/>
            <Array as="points">
              <mxPoint x="80" y="320"/>
              <mxPoint x="750" y="320"/>
            </Array>
          </mxGeometry>
        </mxCell>
        <mxCell id="1c1d494c118603dd-2" value="Lane 1" style="swimlane;html=1;startSize=20;" parent="1c1d494c118603dd-1" vertex="1">
          <mxGeometry y="20" width="490" height="1940" as="geometry"/>
        </mxCell>
        <mxCell id="60571a20871a0731-4" value="" style="ellipse;whiteSpace=wrap;html=1;rounded=0;shadow=0;comic=0;labelBackgroundColor=none;strokeColor=#000000;strokeWidth=1;fillColor=#000000;fontFamily=Verdana;fontSize=12;fontColor=#000000;align=center;" parent="1c1d494c118603dd-2" vertex="1">
          <mxGeometry x="100" y="60" width="40" height="40" as="geometry"/>
        </mxCell>
        <mxCell id="1c1d494c118603dd-27" style="edgeStyle=orthogonalEdgeStyle;rounded=0;html=1;labelBackgroundColor=none;startArrow=none;startFill=0;startSize=5;endArrow=classicThin;endFill=1;endSize=5;jettySize=auto;orthogonalLoop=1;strokeColor=#000000;strokeWidth=1;fontFamily=Verdana;fontSize=12;fontColor=#000000;" parent="1c1d494c118603dd-2" source="60571a20871a0731-4" edge="1">
          <mxGeometry relative="1" as="geometry">
            <mxPoint x="120" y="160" as="targetPoint"/>
          </mxGeometry>
        </mxCell>
        <mxCell id="n3SkGMCZbg7LG-9alkwq-5" value="" style="rounded=0;whiteSpace=wrap;html=1;fillColor=#000000;" vertex="1" parent="1c1d494c118603dd-2">
          <mxGeometry x="63" y="160" width="120" height="10" as="geometry"/>
        </mxCell>
        <mxCell id="n3SkGMCZbg7LG-9alkwq-7" value="Cliquea botón &quot;Clubes de lectura&quot;" style="rounded=1;whiteSpace=wrap;html=1;shadow=0;comic=0;labelBackgroundColor=none;strokeColor=#000000;strokeWidth=1;fillColor=#ffffff;fontFamily=Verdana;fontSize=12;fontColor=#000000;align=center;arcSize=50;" vertex="1" parent="1c1d494c118603dd-2">
          <mxGeometry x="30" y="200" width="120" height="40" as="geometry"/>
        </mxCell>
        <mxCell id="n3SkGMCZbg7LG-9alkwq-10" value="Cliquea botón &quot;Libros&quot;" style="rounded=1;whiteSpace=wrap;html=1;shadow=0;comic=0;labelBackgroundColor=none;strokeColor=#000000;strokeWidth=1;fillColor=#ffffff;fontFamily=Verdana;fontSize=12;fontColor=#000000;align=center;arcSize=50;" vertex="1" parent="1c1d494c118603dd-2">
          <mxGeometry x="172.5" y="200" width="120" height="40" as="geometry"/>
        </mxCell>
        <mxCell id="n3SkGMCZbg7LG-9alkwq-8" style="edgeStyle=none;rounded=0;orthogonalLoop=1;jettySize=auto;html=1;entryX=0.338;entryY=-0.075;entryDx=0;entryDy=0;entryPerimeter=0;" edge="1" parent="1c1d494c118603dd-2" source="n3SkGMCZbg7LG-9alkwq-5" target="n3SkGMCZbg7LG-9alkwq-10">
          <mxGeometry relative="1" as="geometry">
            <mxPoint x="200" y="200" as="targetPoint"/>
          </mxGeometry>
        </mxCell>
        <mxCell id="n3SkGMCZbg7LG-9alkwq-12" value="" style="rounded=0;whiteSpace=wrap;html=1;shadow=0;comic=0;labelBackgroundColor=none;strokeColor=#000000;strokeWidth=1;fillColor=#000000;fontFamily=Verdana;fontSize=12;fontColor=#000000;align=center;arcSize=50;" vertex="1" parent="1c1d494c118603dd-2">
          <mxGeometry x="130" y="450" width="180" height="10" as="geometry"/>
        </mxCell>
        <mxCell id="n3SkGMCZbg7LG-9alkwq-15" value="Cliquea &quot;Mi club de lectura&quot;" style="rounded=1;whiteSpace=wrap;html=1;shadow=0;comic=0;labelBackgroundColor=none;strokeColor=#000000;strokeWidth=1;fillColor=#ffffff;fontFamily=Verdana;fontSize=12;fontColor=#000000;align=center;arcSize=50;" vertex="1" parent="1c1d494c118603dd-2">
          <mxGeometry x="40" y="490" width="140" height="40" as="geometry"/>
        </mxCell>
        <mxCell id="n3SkGMCZbg7LG-9alkwq-17" value="Cliquea &quot;Explorar clubes de lectura&quot;" style="rounded=1;whiteSpace=wrap;html=1;shadow=0;comic=0;labelBackgroundColor=none;strokeColor=#000000;strokeWidth=1;fillColor=#ffffff;fontFamily=Verdana;fontSize=12;fontColor=#000000;align=center;arcSize=50;" vertex="1" parent="1c1d494c118603dd-2">
          <mxGeometry x="265" y="490" width="140" height="40" as="geometry"/>
        </mxCell>
        <mxCell id="1c1d494c118603dd-4" value="Lane 3" style="swimlane;html=1;startSize=20;" parent="1c1d494c118603dd-1" vertex="1">
          <mxGeometry x="490" y="20" width="750" height="1940" as="geometry"/>
        </mxCell>
        <mxCell id="1c1d494c118603dd-45" style="edgeStyle=none;rounded=0;html=1;labelBackgroundColor=none;startArrow=none;startFill=0;startSize=5;endArrow=classicThin;endFill=1;endSize=5;jettySize=auto;orthogonalLoop=1;strokeColor=#000000;strokeWidth=1;fontFamily=Verdana;fontSize=12;fontColor=#000000;" parent="1c1d494c118603dd-4" target="60571a20871a0731-5" edge="1">
          <mxGeometry relative="1" as="geometry">
            <mxPoint x="70" y="1810" as="sourcePoint"/>
          </mxGeometry>
        </mxCell>
        <mxCell id="60571a20871a0731-5" value="" style="shape=mxgraph.bpmn.shape;html=1;verticalLabelPosition=bottom;labelBackgroundColor=#ffffff;verticalAlign=top;perimeter=ellipsePerimeter;outline=end;symbol=terminate;rounded=0;shadow=0;comic=0;strokeColor=#000000;strokeWidth=1;fillColor=#ffffff;fontFamily=Verdana;fontSize=12;fontColor=#000000;align=center;" parent="1c1d494c118603dd-4" vertex="1">
          <mxGeometry x="50" y="1850" width="40" height="40" as="geometry"/>
        </mxCell>
        <mxCell id="n3SkGMCZbg7LG-9alkwq-11" value="" style="edgeStyle=none;rounded=0;orthogonalLoop=1;jettySize=auto;html=1;entryX=0.444;entryY=0;entryDx=0;entryDy=0;entryPerimeter=0;" edge="1" parent="1c1d494c118603dd-4" source="n3SkGMCZbg7LG-9alkwq-1" target="n3SkGMCZbg7LG-9alkwq-3">
          <mxGeometry relative="1" as="geometry"/>
        </mxCell>
        <mxCell id="n3SkGMCZbg7LG-9alkwq-1" value="Muestra interfaz &quot;Dropdown clubes de lectura&quot;" style="rounded=1;whiteSpace=wrap;html=1;shadow=0;comic=0;labelBackgroundColor=none;strokeColor=#000000;strokeWidth=1;fillColor=#ffffff;fontFamily=Verdana;fontSize=12;fontColor=#000000;align=center;arcSize=50;" vertex="1" parent="1c1d494c118603dd-4">
          <mxGeometry x="160" y="330" width="180" height="40" as="geometry"/>
        </mxCell>
        <mxCell id="n3SkGMCZbg7LG-9alkwq-3" value="&lt;div&gt;&amp;gt; Mi club de lectura&lt;/div&gt;&lt;div&gt;&amp;gt; Explorar clubes de lectura&lt;br&gt;&lt;/div&gt;" style="rounded=0;whiteSpace=wrap;html=1;shadow=0;comic=0;labelBackgroundColor=none;strokeColor=#000000;strokeWidth=1;fillColor=#ffffff;fontFamily=Verdana;fontSize=12;fontColor=#000000;align=center;arcSize=50;" vertex="1" parent="1c1d494c118603dd-4">
          <mxGeometry x="170" y="440" width="180" height="40" as="geometry"/>
        </mxCell>
        <mxCell id="n3SkGMCZbg7LG-9alkwq-23" value="" style="edgeStyle=orthogonalEdgeStyle;rounded=0;orthogonalLoop=1;jettySize=auto;html=1;" edge="1" parent="1c1d494c118603dd-4" source="n3SkGMCZbg7LG-9alkwq-19">
          <mxGeometry relative="1" as="geometry">
            <mxPoint x="440" y="670" as="targetPoint"/>
            <Array as="points">
              <mxPoint x="440" y="640"/>
            </Array>
          </mxGeometry>
        </mxCell>
        <mxCell id="n3SkGMCZbg7LG-9alkwq-19" value="" style="rhombus;whiteSpace=wrap;html=1;rounded=0;fillColor=#FFFFFF;" vertex="1" parent="1c1d494c118603dd-4">
          <mxGeometry x="230" y="600" width="80" height="80" as="geometry"/>
        </mxCell>
        <mxCell id="n3SkGMCZbg7LG-9alkwq-21" value="&lt;div&gt;Persona no está asociada &lt;br&gt;&lt;/div&gt;&lt;div&gt;a algún club&lt;/div&gt;" style="text;html=1;resizable=0;points=[];autosize=1;align=left;verticalAlign=top;spacingTop=-4;" vertex="1" parent="1c1d494c118603dd-4">
          <mxGeometry x="100" y="610" width="150" height="30" as="geometry"/>
        </mxCell>
        <mxCell id="n3SkGMCZbg7LG-9alkwq-24" value="&lt;div&gt;Persona está asociada &lt;br&gt;&lt;/div&gt;&lt;div&gt;a algún club&lt;br&gt;&lt;/div&gt;" style="text;html=1;resizable=0;points=[];autosize=1;align=left;verticalAlign=top;spacingTop=-4;" vertex="1" parent="1c1d494c118603dd-4">
          <mxGeometry x="310" y="610" width="140" height="30" as="geometry"/>
        </mxCell>
        <mxCell id="n3SkGMCZbg7LG-9alkwq-27" value="" style="edgeStyle=orthogonalEdgeStyle;rounded=0;orthogonalLoop=1;jettySize=auto;html=1;" edge="1" parent="1c1d494c118603dd-4" source="n3SkGMCZbg7LG-9alkwq-25" target="n3SkGMCZbg7LG-9alkwq-26">
          <mxGeometry relative="1" as="geometry"/>
        </mxCell>
        <mxCell id="n3SkGMCZbg7LG-9alkwq-25" value="Muestra mensaje &quot;Usted no se encuentra asociado a ningún club&quot;" style="rounded=1;whiteSpace=wrap;html=1;shadow=0;comic=0;labelBackgroundColor=none;strokeColor=#000000;strokeWidth=1;fillColor=#ffffff;fontFamily=Verdana;fontSize=12;fontColor=#000000;align=center;arcSize=50;" vertex="1" parent="1c1d494c118603dd-4">
          <mxGeometry x="50" y="680" width="170" height="70" as="geometry"/>
        </mxCell>
        <mxCell id="n3SkGMCZbg7LG-9alkwq-26" value="Boton &quot;Explorar clubes de lectura&quot;" style="rounded=0;whiteSpace=wrap;html=1;shadow=0;comic=0;labelBackgroundColor=none;strokeColor=#000000;strokeWidth=1;fillColor=#ffffff;fontFamily=Verdana;fontSize=12;fontColor=#000000;align=center;arcSize=50;" vertex="1" parent="1c1d494c118603dd-4">
          <mxGeometry x="50" y="830" width="170" height="50" as="geometry"/>
        </mxCell>
        <mxCell id="n3SkGMCZbg7LG-9alkwq-34" value="" style="edgeStyle=orthogonalEdgeStyle;rounded=0;orthogonalLoop=1;jettySize=auto;html=1;" edge="1" parent="1c1d494c118603dd-4" source="n3SkGMCZbg7LG-9alkwq-32" target="n3SkGMCZbg7LG-9alkwq-33">
          <mxGeometry relative="1" as="geometry"/>
        </mxCell>
        <mxCell id="n3SkGMCZbg7LG-9alkwq-32" value="Muestra interfaz &quot;Overview de club&quot;" style="rounded=1;whiteSpace=wrap;html=1;shadow=0;comic=0;labelBackgroundColor=none;strokeColor=#000000;strokeWidth=1;fillColor=#ffffff;fontFamily=Verdana;fontSize=12;fontColor=#000000;align=center;arcSize=50;" vertex="1" parent="1c1d494c118603dd-4">
          <mxGeometry x="320" y="670" width="170" height="70" as="geometry"/>
        </mxCell>
        <mxCell id="n3SkGMCZbg7LG-9alkwq-36" value="" style="edgeStyle=orthogonalEdgeStyle;rounded=0;orthogonalLoop=1;jettySize=auto;html=1;entryX=0.5;entryY=0;entryDx=0;entryDy=0;" edge="1" parent="1c1d494c118603dd-4" source="n3SkGMCZbg7LG-9alkwq-33" target="n3SkGMCZbg7LG-9alkwq-37">
          <mxGeometry relative="1" as="geometry">
            <mxPoint x="405" y="930" as="targetPoint"/>
          </mxGeometry>
        </mxCell>
        <mxCell id="n3SkGMCZbg7LG-9alkwq-33" value="Datos club de lectura" style="rounded=0;whiteSpace=wrap;html=1;shadow=0;comic=0;labelBackgroundColor=none;strokeColor=#000000;strokeWidth=1;fillColor=#ffffff;fontFamily=Verdana;fontSize=12;fontColor=#000000;align=center;arcSize=50;" vertex="1" parent="1c1d494c118603dd-4">
          <mxGeometry x="320" y="820" width="170" height="30" as="geometry"/>
        </mxCell>
        <mxCell id="n3SkGMCZbg7LG-9alkwq-37" value="" style="rhombus;whiteSpace=wrap;html=1;rounded=0;fillColor=#FFFFFF;" vertex="1" parent="1c1d494c118603dd-4">
          <mxGeometry x="490" y="950" width="80" height="80" as="geometry"/>
        </mxCell>
        <mxCell id="n3SkGMCZbg7LG-9alkwq-39" value="&lt;div&gt;Persona está en &lt;br&gt;&lt;/div&gt;&lt;div&gt;algún grupo de lectura&lt;br&gt;&lt;/div&gt;" style="text;html=1;resizable=0;points=[];autosize=1;align=left;verticalAlign=top;spacingTop=-4;" vertex="1" parent="1c1d494c118603dd-4">
          <mxGeometry x="375" y="960" width="130" height="30" as="geometry"/>
        </mxCell>
        <mxCell id="n3SkGMCZbg7LG-9alkwq-42" value="" style="edgeStyle=orthogonalEdgeStyle;rounded=0;orthogonalLoop=1;jettySize=auto;html=1;" edge="1" parent="1c1d494c118603dd-4" source="n3SkGMCZbg7LG-9alkwq-40" target="n3SkGMCZbg7LG-9alkwq-41">
          <mxGeometry relative="1" as="geometry"/>
        </mxCell>
        <mxCell id="n3SkGMCZbg7LG-9alkwq-40" value="Datos grupo de lectura" style="rounded=0;whiteSpace=wrap;html=1;shadow=0;comic=0;labelBackgroundColor=none;strokeColor=#000000;strokeWidth=1;fillColor=#ffffff;fontFamily=Verdana;fontSize=12;fontColor=#000000;align=center;arcSize=50;" vertex="1" parent="1c1d494c118603dd-4">
          <mxGeometry x="330" y="1010" width="110" height="50" as="geometry"/>
        </mxCell>
        <mxCell id="n3SkGMCZbg7LG-9alkwq-41" value="Datos reunión de esta semana" style="rounded=0;whiteSpace=wrap;html=1;shadow=0;comic=0;labelBackgroundColor=none;strokeColor=#000000;strokeWidth=1;fillColor=#ffffff;fontFamily=Verdana;fontSize=12;fontColor=#000000;align=center;arcSize=50;" vertex="1" parent="1c1d494c118603dd-4">
          <mxGeometry x="330" y="1140" width="110" height="50" as="geometry"/>
        </mxCell>
        <mxCell id="n3SkGMCZbg7LG-9alkwq-13" value="" style="edgeStyle=none;rounded=0;orthogonalLoop=1;jettySize=auto;html=1;" edge="1" parent="1c1d494c118603dd-1" source="n3SkGMCZbg7LG-9alkwq-3" target="n3SkGMCZbg7LG-9alkwq-12">
          <mxGeometry relative="1" as="geometry"/>
        </mxCell>
        <mxCell id="n3SkGMCZbg7LG-9alkwq-29" value="" style="edgeStyle=orthogonalEdgeStyle;rounded=0;orthogonalLoop=1;jettySize=auto;html=1;entryX=0.5;entryY=1;entryDx=0;entryDy=0;" edge="1" parent="1c1d494c118603dd-1" source="n3SkGMCZbg7LG-9alkwq-26" target="n3SkGMCZbg7LG-9alkwq-17">
          <mxGeometry relative="1" as="geometry">
            <mxPoint x="340" y="640" as="targetPoint"/>
          </mxGeometry>
        </mxCell>
        <mxCell id="n3SkGMCZbg7LG-9alkwq-6" style="rounded=0;orthogonalLoop=1;jettySize=auto;html=1;" edge="1" parent="1" source="n3SkGMCZbg7LG-9alkwq-5">
          <mxGeometry relative="1" as="geometry">
            <mxPoint x="130" y="240" as="targetPoint"/>
          </mxGeometry>
        </mxCell>
        <mxCell id="n3SkGMCZbg7LG-9alkwq-14" style="edgeStyle=none;rounded=0;orthogonalLoop=1;jettySize=auto;html=1;" edge="1" parent="1" source="n3SkGMCZbg7LG-9alkwq-12">
          <mxGeometry relative="1" as="geometry">
            <mxPoint x="190" y="530" as="targetPoint"/>
          </mxGeometry>
        </mxCell>
        <mxCell id="n3SkGMCZbg7LG-9alkwq-16" style="edgeStyle=none;rounded=0;orthogonalLoop=1;jettySize=auto;html=1;" edge="1" parent="1" source="n3SkGMCZbg7LG-9alkwq-12">
          <mxGeometry relative="1" as="geometry">
            <mxPoint x="350" y="530" as="targetPoint"/>
          </mxGeometry>
        </mxCell>
        <mxCell id="n3SkGMCZbg7LG-9alkwq-18" style="edgeStyle=orthogonalEdgeStyle;rounded=0;orthogonalLoop=1;jettySize=auto;html=1;" edge="1" parent="1" source="n3SkGMCZbg7LG-9alkwq-15">
          <mxGeometry relative="1" as="geometry">
            <mxPoint x="800" y="640" as="targetPoint"/>
            <Array as="points">
              <mxPoint x="150" y="620"/>
              <mxPoint x="800" y="620"/>
            </Array>
          </mxGeometry>
        </mxCell>
        <mxCell id="n3SkGMCZbg7LG-9alkwq-20" style="edgeStyle=orthogonalEdgeStyle;rounded=0;orthogonalLoop=1;jettySize=auto;html=1;" edge="1" parent="1" source="n3SkGMCZbg7LG-9alkwq-19">
          <mxGeometry relative="1" as="geometry">
            <mxPoint x="650" y="720" as="targetPoint"/>
            <Array as="points">
              <mxPoint x="650" y="680"/>
              <mxPoint x="650" y="720"/>
            </Array>
          </mxGeometry>
        </mxCell>
        <mxCell id="n3SkGMCZbg7LG-9alkwq-38" style="edgeStyle=orthogonalEdgeStyle;rounded=0;orthogonalLoop=1;jettySize=auto;html=1;exitX=0;exitY=0.5;exitDx=0;exitDy=0;" edge="1" parent="1" source="n3SkGMCZbg7LG-9alkwq-37">
          <mxGeometry relative="1" as="geometry">
            <mxPoint x="910" y="1050" as="targetPoint"/>
            <Array as="points">
              <mxPoint x="910" y="1030"/>
            </Array>
          </mxGeometry>
        </mxCell>
      </root>
    </mxGraphModel>
  </diagram>
</mxfile>
